ffmpeg version git-2020-02-03-1c15111 Copyright (c) 2000-2020 the FFmpeg developers
  built with gcc 9.2.1 (GCC) 20200122
  configuration: --enable-gpl --enable-version3 --enable-sdl2 --enable-fontconfig --enable-gnutls --enable-iconv --enable-libass --enable-libdav1d --enable-libbluray --enable-libfreetype --enable-libmp3lame --enable-libopencore-amrnb --enable-libopencore-amrwb --enable-libopenjpeg --enable-libopus --enable-libshine --enable-libsnappy --enable-libsoxr --enable-libtheora --enable-libtwolame --enable-libvpx --enable-libwavpack --enable-libwebp --enable-libx264 --enable-libx265 --enable-libxml2 --enable-libzimg --enable-lzma --enable-zlib --enable-gmp --enable-libvidstab --enable-libvorbis --enable-libvo-amrwbenc --enable-libmysofa --enable-libspeex --enable-libxvid --enable-libaom --enable-libmfx --enable-ffnvcodec --enable-cuvid --enable-d3d11va --enable-nvenc --enable-nvdec --enable-dxva2 --enable-avisynth --enable-libopenmpt --enable-amf
  libavutil      56. 38.100 / 56. 38.100
  libavcodec     58. 67.100 / 58. 67.100
  libavformat    58. 37.100 / 58. 37.100
  libavdevice    58.  9.103 / 58.  9.103
  libavfilter     7. 73.100 /  7. 73.100
  libswscale      5.  6.100 /  5.  6.100
  libswresample   3.  6.100 /  3.  6.100
  libpostproc    55.  6.100 / 55.  6.100
Input #0, mov,mp4,m4a,3gp,3g2,mj2, from './output/output2.mp4':
  Metadata:
    major_brand     : isom
    minor_version   : 512
    compatible_brands: isomiso2avc1mp41
    encoder         : Lavf58.37.100
  Duration: 00:04:00.51, start: 0.000000, bitrate: 820 kb/s
    Stream #0:0(und): Audio: aac (LC) (mp4a / 0x6134706D), 44100 Hz, stereo, fltp, 192 kb/s (default)
    Metadata:
      handler_name    : SoundHandler
    Stream #0:1(und): Video: h264 (High) (avc1 / 0x31637661), yuv420p, 1080x1080 [SAR 1:1 DAR 1:1], 620 kb/s, 25 fps, 25 tbr, 12800 tbn, 50 tbc (default)
    Metadata:
      handler_name    : VideoHandler
Input #1, png_pipe, from 'http://localhost/advanced_pdo/logo/adidas.png':
  Duration: N/A, bitrate: N/A
    Stream #1:0: Video: png, rgba(pc), 768x240, 25 tbr, 25 tbn, 25 tbc
Stream mapping:
  Stream #0:1 (h264) -> overlay:main (graph 0)
  Stream #1:0 (png) -> overlay:overlay (graph 0)
  overlay (graph 0) -> Stream #0:0 (libx264)
  Stream #0:0 -> #0:1 (aac (native) -> aac (native))
Press [q] to stop, [?] for help
[libx264 @ 000000000062f240] using SAR=1/1
[libx264 @ 000000000062f240] using cpu capabilities: MMX2 SSE2Fast SSSE3 SSE4.2 AVX FMA3 BMI2 AVX2
[libx264 @ 000000000062f240] profile High, level 3.2, 4:2:0, 8-bit
[libx264 @ 000000000062f240] 264 - core 159 - H.264/MPEG-4 AVC codec - Copyleft 2003-2019 - http://www.videolan.org/x264.html - options: cabac=1 ref=3 deblock=1:0:0 analyse=0x3:0x113 me=hex subme=7 psy=1 psy_rd=1.00:0.00 mixed_ref=1 me_range=16 chroma_me=1 trellis=1 8x8dct=1 cqm=0 deadzone=21,11 fast_pskip=1 chroma_qp_offset=-2 threads=6 lookahead_threads=1 sliced_threads=0 nr=0 decimate=1 interlaced=0 bluray_compat=0 constrained_intra=0 bframes=3 b_pyramid=2 b_adapt=1 b_bias=0 direct=1 weightb=1 open_gop=0 weightp=2 keyint=250 keyint_min=25 scenecut=40 intra_refresh=0 rc_lookahead=40 rc=crf mbtree=1 crf=23.0 qcomp=0.60 qpmin=0 qpmax=69 qpstep=4 ip_ratio=1.40 aq=1:1.00
Output #0, mp4, to './output/output3.mp4':
  Metadata:
    major_brand     : isom
    minor_version   : 512
    compatible_brands: isomiso2avc1mp41
    encoder         : Lavf58.37.100
    Stream #0:0: Video: h264 (libx264) (avc1 / 0x31637661), yuv420p, 1080x1080 [SAR 1:1 DAR 1:1], q=-1--1, 25 fps, 12800 tbn, 25 tbc (default)
    Metadata:
      encoder         : Lavc58.67.100 libx264
    Side data:
      cpb: bitrate max/min/avg: 0/0/0 buffer size: 0 vbv_delay: N/A
    Stream #0:1(und): Audio: aac (LC) (mp4a / 0x6134706D), 44100 Hz, stereo, fltp, 128 kb/s (default)
    Metadata:
      handler_name    : SoundHandler
      encoder         : Lavc58.67.100 aac
frame=   54 fps=0.0 q=28.0 size=       0kB time=00:00:02.27 bitrate=   0.2kbits/s speed=4.48x    frame=   90 fps= 87 q=28.0 size=       0kB time=00:00:03.71 bitrate=   0.1kbits/s speed=3.61x    frame=  126 fps= 79 q=28.0 size=     256kB time=00:00:05.15 bitrate= 406.9kbits/s speed=3.22x    frame=  159 fps= 75 q=28.0 size=     512kB time=00:00:06.47 bitrate= 647.5kbits/s speed=3.07x    frame=  191 fps= 73 q=28.0 size=     512kB time=00:00:07.75 bitrate= 540.9kbits/s speed=2.97x    frame=  225 fps= 72 q=28.0 size=     768kB time=00:00:09.10 bitrate= 691.2kbits/s speed=2.92x    frame=  256 fps= 70 q=28.0 size=     768kB time=00:00:10.35 bitrate= 607.5kbits/s speed=2.84x    frame=  288 fps= 69 q=28.0 size=    1024kB time=00:00:11.63 bitrate= 721.1kbits/s speed=2.81x    frame=  326 fps= 70 q=28.0 size=    1280kB time=00:00:13.14 bitrate= 797.9kbits/s speed=2.83x    frame=  360 fps= 70 q=28.0 size=    1280kB time=00:00:14.51 bitrate= 722.6kbits/s speed=2.82x    frame=  400 fps= 71 q=28.0 size=    1280kB time=00:00:16.11 bitrate= 650.7kbits/s speed=2.85x    frame=  432 fps= 70 q=28.0 size=    1536kB time=00:00:17.39 bitrate= 723.5kbits/s speed=2.82x    frame=  464 fps= 69 q=28.0 size=    1792kB time=00:00:18.66 bitrate= 786.4kbits/s speed=2.79x    frame=  497 fps= 69 q=28.0 size=    1792kB time=00:00:19.99 bitrate= 734.3kbits/s speed=2.78x    frame=  529 fps= 69 q=28.0 size=    2048kB time=00:00:21.29 bitrate= 788.0kbits/s speed=2.77x    frame=  560 fps= 68 q=28.0 size=    2048kB time=00:00:22.50 bitrate= 745.7kbits/s speed=2.74x    frame=  594 fps= 68 q=28.0 size=    2304kB time=00:00:23.89 bitrate= 790.0kbits/s speed=2.75x    frame=  627 fps= 68 q=28.0 size=    2304kB time=00:00:25.19 bitrate= 749.2kbits/s speed=2.74x    frame=  665 fps= 68 q=28.0 size=    2560kB time=00:00:26.70 bitrate= 785.4kbits/s speed=2.74x    frame=  701 fps= 68 q=28.0 size=    2560kB time=00:00:28.14 bitrate= 745.2kbits/s speed=2.74x    frame=  741 fps= 69 q=28.0 size=    2816kB time=00:00:29.74 bitrate= 775.6kbits/s speed=2.76x    frame=  779 fps= 69 q=28.0 size=    2816kB time=00:00:31.27 bitrate= 737.6kbits/s speed=2.77x    frame=  816 fps= 69 q=28.0 size=    3072kB time=00:00:32.76 bitrate= 768.1kbits/s speed=2.78x    frame=  854 fps= 69 q=28.0 size=    3072kB time=00:00:34.27 bitrate= 734.3kbits/s speed=2.79x    frame=  887 fps= 69 q=28.0 size=    3328kB time=00:00:35.59 bitrate= 765.9kbits/s speed=2.78x    frame=  924 fps= 69 q=28.0 size=    3328kB time=00:00:37.05 bitrate= 735.7kbits/s speed=2.79x    frame=  961 fps= 70 q=28.0 size=    3328kB time=00:00:38.54 bitrate= 707.3kbits/s speed=2.79x    frame=  997 fps= 70 q=28.0 size=    3584kB time=00:00:39.98 bitrate= 734.3kbits/s speed=2.79x    frame= 1034 fps= 70 q=28.0 size=    3840kB time=00:00:41.44 bitrate= 759.0kbits/s speed= 2.8x    frame= 1067 fps= 70 q=28.0 size=    3840kB time=00:00:42.79 bitrate= 735.1kbits/s speed=2.79x    frame= 1102 fps= 70 q=28.0 size=    4096kB time=00:00:44.18 bitrate= 759.4kbits/s speed=2.79x    frame= 1140 fps= 70 q=28.0 size=    4096kB time=00:00:45.69 bitrate= 734.3kbits/s speed=2.79x    frame= 1177 fps= 70 q=28.0 size=    4096kB time=00:00:47.18 bitrate= 711.2kbits/s speed= 2.8x    frame= 1212 fps= 70 q=28.0 size=    4352kB time=00:00:48.59 bitrate= 733.6kbits/s speed= 2.8x    frame= 1250 fps= 70 q=28.0 size=    4352kB time=00:00:50.08 bitrate= 711.8kbits/s speed= 2.8x    frame= 1286 fps= 70 q=28.0 size=    4608kB time=00:00:51.54 bitrate= 732.3kbits/s speed= 2.8x    frame= 1327 fps= 70 q=28.0 size=    4608kB time=00:00:53.19 bitrate= 709.6kbits/s speed=2.82x    frame= 1363 fps= 70 q=28.0 size=    4864kB time=00:00:54.63 bitrate= 729.3kbits/s speed=2.82x    frame= 1400 fps= 70 q=28.0 size=    4864kB time=00:00:56.09 bitrate= 710.3kbits/s speed=2.82x    frame= 1434 fps= 70 q=28.0 size=    5120kB time=00:00:57.46 bitrate= 729.8kbits/s speed=2.81x    frame= 1468 fps= 70 q=28.0 size=    5376kB time=00:00:58.83 bitrate= 748.5kbits/s speed=2.81x    frame= 1502 fps= 70 q=28.0 size=    5376kB time=00:01:00.18 bitrate= 731.7kbits/s speed=2.81x    frame= 1536 fps= 70 q=28.0 size=    5632kB time=00:01:01.55 bitrate= 749.5kbits/s speed= 2.8x    frame= 1571 fps= 70 q=28.0 size=    5632kB time=00:01:02.94 bitrate= 732.9kbits/s speed= 2.8x    frame= 1596 fps= 69 q=28.0 size=    5888kB time=00:01:03.94 bitrate= 754.3kbits/s speed=2.78x    frame= 1623 fps= 69 q=28.0 size=    5888kB time=00:01:05.03 bitrate= 741.6kbits/s speed=2.76x    frame= 1648 fps= 69 q=28.0 size=    6144kB time=00:01:06.03 bitrate= 762.2kbits/s speed=2.75x    frame= 1683 fps= 69 q=28.0 size=    6400kB time=00:01:07.43 bitrate= 777.5kbits/s speed=2.75x    frame= 1733 fps= 69 q=28.0 size=    6400kB time=00:01:09.42 bitrate= 755.2kbits/s speed=2.77x    frame= 1782 fps= 70 q=28.0 size=    6400kB time=00:01:11.37 bitrate= 734.5kbits/s speed=2.79x    frame= 1820 fps= 70 q=28.0 size=    6656kB time=00:01:12.91 bitrate= 747.9kbits/s speed=2.79x    frame= 1855 fps= 70 q=28.0 size=    6656kB time=00:01:14.30 bitrate= 733.8kbits/s speed=2.79x    frame= 1895 fps= 70 q=28.0 size=    6912kB time=00:01:15.92 bitrate= 745.7kbits/s speed= 2.8x    frame= 1935 fps= 70 q=28.0 size=    6912kB time=00:01:17.50 bitrate= 730.5kbits/s speed=2.81x    frame= 1975 fps= 70 q=28.0 size=    7168kB time=00:01:19.11 bitrate= 742.3kbits/s speed=2.82x    frame= 2016 fps= 70 q=28.0 size=    7168kB time=00:01:20.75 bitrate= 727.1kbits/s speed=2.82x    frame= 2057 fps= 71 q=28.0 size=    7168kB time=00:01:22.38 bitrate= 712.8kbits/s speed=2.83x    frame= 2103 fps= 71 q=28.0 size=    7424kB time=00:01:24.21 bitrate= 722.1kbits/s speed=2.84x    frame= 2147 fps= 71 q=28.0 size=    7424kB time=00:01:25.98 bitrate= 707.3kbits/s speed=2.85x    frame= 2185 fps= 71 q=28.0 size=    7424kB time=00:01:27.51 bitrate= 694.9kbits/s speed=2.85x    frame= 2219 fps= 71 q=28.0 size=    7680kB time=00:01:28.86 bitrate= 708.0kbits/s speed=2.85x    frame= 2253 fps= 71 q=28.0 size=    7680kB time=00:01:30.23 bitrate= 697.3kbits/s speed=2.85x    frame= 2283 fps= 71 q=28.0 size=    7936kB time=00:01:31.41 bitrate= 711.2kbits/s speed=2.84x    frame= 2318 fps= 71 q=28.0 size=    7936kB time=00:01:32.83 bitrate= 700.3kbits/s speed=2.84x    frame= 2358 fps= 71 q=28.0 size=    7936kB time=00:01:34.43 bitrate= 688.4kbits/s speed=2.84x    frame= 2399 fps= 71 q=28.0 size=    7936kB time=00:01:36.06 bitrate= 676.8kbits/s speed=2.84x    frame= 2443 fps= 71 q=28.0 size=    8192kB time=00:01:37.82 bitrate= 686.0kbits/s speed=2.85x    frame= 2484 fps= 71 q=28.0 size=    8192kB time=00:01:39.47 bitrate= 674.6kbits/s speed=2.86x    frame= 2513 fps= 71 q=28.0 size=    8448kB time=00:01:40.63 bitrate= 687.7kbits/s speed=2.85x    frame= 2545 fps= 71 q=28.0 size=    8448kB time=00:01:41.91 bitrate= 679.1kbits/s speed=2.84x    frame= 2574 fps= 71 q=28.0 size=    8704kB time=00:01:43.07 bitrate= 691.8kbits/s speed=2.84x    frame= 2604 fps= 71 q=28.0 size=    8960kB time=00:01:44.25 bitrate= 704.0kbits/s speed=2.83x    frame= 2636 fps= 71 q=28.0 size=    8960kB time=00:01:45.55 bitrate= 695.4kbits/s speed=2.82x    frame= 2666 fps= 70 q=28.0 size=    9216kB time=00:01:46.74 bitrate= 707.3kbits/s speed=2.82x    frame= 2703 fps= 70 q=28.0 size=    9216kB time=00:01:48.22 bitrate= 697.6kbits/s speed=2.82x    frame= 2736 fps= 70 q=28.0 size=    9472kB time=00:01:49.55 bitrate= 708.3kbits/s speed=2.82x    frame= 2766 fps= 70 q=28.0 size=    9472kB time=00:01:50.75 bitrate= 700.6kbits/s speed=2.81x    frame= 2801 fps= 70 q=28.0 size=    9728kB time=00:01:52.15 bitrate= 710.6kbits/s speed=2.81x    frame= 2836 fps= 70 q=28.0 size=    9728kB time=00:01:53.54 bitrate= 701.9kbits/s speed=2.81x    frame= 2872 fps= 70 q=28.0 size=    9984kB time=00:01:54.98 bitrate= 711.3kbits/s speed=2.81x    frame= 2907 fps= 70 q=28.0 size=    9984kB time=00:01:56.37 bitrate= 702.8kbits/s speed=2.81x    frame= 2939 fps= 70 q=28.0 size=   10240kB time=00:01:57.67 bitrate= 712.8kbits/s speed=2.81x    frame= 2974 fps= 70 q=28.0 size=   10240kB time=00:01:59.07 bitrate= 704.5kbits/s speed=2.81x    frame= 3010 fps= 70 q=28.0 size=   10496kB time=00:02:00.53 bitrate= 713.4kbits/s speed=2.81x    frame= 3046 fps= 70 q=28.0 size=   10496kB time=00:02:01.95 bitrate= 705.1kbits/s speed=2.81x    frame= 3081 fps= 70 q=28.0 size=   10752kB time=00:02:03.34 bitrate= 714.1kbits/s speed=2.81x    frame= 3115 fps= 70 q=28.0 size=   11008kB time=00:02:04.71 bitrate= 723.1kbits/s speed=2.81x    frame= 3151 fps= 70 q=28.0 size=   11008kB time=00:02:06.15 bitrate= 714.8kbits/s speed=2.81x    frame= 3190 fps= 70 q=28.0 size=   11008kB time=00:02:07.70 bitrate= 706.1kbits/s speed=2.81x    frame= 3247 fps= 71 q=28.0 size=   11264kB time=00:02:09.98 bitrate= 709.9kbits/s speed=2.83x    frame= 3299 fps= 71 q=28.0 size=   11264kB time=00:02:12.07 bitrate= 698.7kbits/s speed=2.84x    frame= 3339 fps= 71 q=28.0 size=   11264kB time=00:02:13.67 bitrate= 690.3kbits/s speed=2.85x    frame= 3385 fps= 71 q=28.0 size=   11520kB time=00:02:15.51 bitrate= 696.4kbits/s speed=2.85x    frame= 3428 fps= 71 q=28.0 size=   11520kB time=00:02:17.22 bitrate= 687.7kbits/s speed=2.86x    frame= 3474 fps= 72 q=28.0 size=   11776kB time=00:02:19.06 bitrate= 693.7kbits/s speed=2.87x    frame= 3522 fps= 72 q=28.0 size=   11776kB time=00:02:20.99 bitrate= 684.2kbits/s speed=2.88x    frame= 3571 fps= 72 q=28.0 size=   11776kB time=00:02:22.94 bitrate= 674.9kbits/s speed=2.89x    frame= 3613 fps= 72 q=28.0 size=   12032kB time=00:02:24.63 bitrate= 681.5kbits/s speed=2.89x    frame= 3655 fps= 72 q=28.0 size=   12032kB time=00:02:26.30 bitrate= 673.7kbits/s speed= 2.9x    frame= 3699 fps= 72 q=28.0 size=   12288kB time=00:02:28.07 bitrate= 679.8kbits/s speed= 2.9x    frame= 3747 fps= 73 q=28.0 size=   12288kB time=00:02:29.97 bitrate= 671.2kbits/s speed=2.91x    frame= 3789 fps= 73 q=28.0 size=   12544kB time=00:02:31.67 bitrate= 677.5kbits/s speed=2.91x    frame= 3832 fps= 73 q=28.0 size=   12544kB time=00:02:33.36 bitrate= 670.0kbits/s speed=2.92x    frame= 3875 fps= 73 q=28.0 size=   12544kB time=00:02:35.10 bitrate= 662.5kbits/s speed=2.92x    frame= 3915 fps= 73 q=28.0 size=   12800kB time=00:02:36.71 bitrate= 669.1kbits/s speed=2.92x    frame= 3963 fps= 73 q=28.0 size=   12800kB time=00:02:38.63 bitrate= 661.0kbits/s speed=2.93x    frame= 4007 fps= 73 q=28.0 size=   13056kB time=00:02:40.35 bitrate= 667.0kbits/s speed=2.94x    frame= 4050 fps= 73 q=28.0 size=   13056kB time=00:02:42.09 bitrate= 659.8kbits/s speed=2.94x    frame= 4089 fps= 74 q=28.0 size=   13056kB time=00:02:43.67 bitrate= 653.5kbits/s speed=2.94x    frame= 4130 fps= 74 q=28.0 size=   13312kB time=00:02:45.30 bitrate= 659.7kbits/s speed=2.95x    frame= 4170 fps= 74 q=28.0 size=   13312kB time=00:02:46.90 bitrate= 653.4kbits/s speed=2.95x    frame= 4214 fps= 74 q=28.0 size=   13568kB time=00:02:48.66 bitrate= 659.0kbits/s speed=2.95x    frame= 4256 fps= 74 q=28.0 size=   13568kB time=00:02:50.34 bitrate= 652.5kbits/s speed=2.95x    frame= 4296 fps= 74 q=28.0 size=   13824kB time=00:02:51.94 bitrate= 658.6kbits/s speed=2.96x    frame= 4339 fps= 74 q=28.0 size=   13824kB time=00:02:53.66 bitrate= 652.1kbits/s speed=2.96x    frame= 4380 fps= 74 q=28.0 size=   13824kB time=00:02:55.28 bitrate= 646.1kbits/s speed=2.96x    frame= 4424 fps= 74 q=28.0 size=   14080kB time=00:02:57.07 bitrate= 651.4kbits/s speed=2.97x    frame= 4467 fps= 74 q=28.0 size=   14080kB time=00:02:58.79 bitrate= 645.1kbits/s speed=2.97x    frame= 4507 fps= 74 q=28.0 size=   14336kB time=00:03:00.39 bitrate= 651.0kbits/s speed=2.97x    frame= 4551 fps= 74 q=28.0 size=   14336kB time=00:03:02.13 bitrate= 644.8kbits/s speed=2.97x    frame= 4594 fps= 74 q=28.0 size=   14592kB time=00:03:03.87 bitrate= 650.1kbits/s speed=2.98x    frame= 4638 fps= 75 q=28.0 size=   14592kB time=00:03:05.62 bitrate= 644.0kbits/s speed=2.98x    frame= 4681 fps= 75 q=28.0 size=   14592kB time=00:03:07.31 bitrate= 638.2kbits/s speed=2.99x    frame= 4721 fps= 75 q=28.0 size=   14848kB time=00:03:08.94 bitrate= 643.8kbits/s speed=2.99x    frame= 4766 fps= 75 q=28.0 size=   14848kB time=00:03:10.75 bitrate= 637.7kbits/s speed=2.99x    frame= 4809 fps= 75 q=28.0 size=   15104kB time=00:03:12.47 bitrate= 642.9kbits/s speed=   3x    frame= 4853 fps= 75 q=28.0 size=   15104kB time=00:03:14.23 bitrate= 637.0kbits/s speed=   3x    frame= 4896 fps= 75 q=28.0 size=   15104kB time=00:03:15.95 bitrate= 631.4kbits/s speed=   3x    frame= 4934 fps= 75 q=28.0 size=   15360kB time=00:03:17.46 bitrate= 637.2kbits/s speed=   3x    frame= 4975 fps= 75 q=28.0 size=   15360kB time=00:03:19.11 bitrate= 632.0kbits/s speed=   3x    frame= 5019 fps= 75 q=28.0 size=   15616kB time=00:03:20.87 bitrate= 636.8kbits/s speed=3.01x    frame= 5064 fps= 75 q=28.0 size=   15616kB time=00:03:22.66 bitrate= 631.2kbits/s speed=3.01x    frame= 5109 fps= 75 q=28.0 size=   15616kB time=00:03:24.47 bitrate= 625.6kbits/s speed=3.02x    frame= 5146 fps= 75 q=28.0 size=   15872kB time=00:03:25.93 bitrate= 631.4kbits/s speed=3.02x    frame= 5184 fps= 75 q=28.0 size=   15872kB time=00:03:27.49 bitrate= 626.6kbits/s speed=3.02x    frame= 5224 fps= 75 q=28.0 size=   16128kB time=00:03:29.07 bitrate= 631.9kbits/s speed=3.02x    frame= 5265 fps= 75 q=28.0 size=   16128kB time=00:03:30.69 bitrate= 627.1kbits/s speed=3.02x    frame= 5306 fps= 75 q=28.0 size=   16128kB time=00:03:32.34 bitrate= 622.2kbits/s speed=3.02x    frame= 5343 fps= 75 q=28.0 size=   16384kB time=00:03:33.83 bitrate= 627.7kbits/s speed=3.02x    frame= 5370 fps= 75 q=28.0 size=   16640kB time=00:03:34.90 bitrate= 634.3kbits/s speed=3.01x    frame= 5398 fps= 75 q=28.0 size=   16896kB time=00:03:36.03 bitrate= 640.7kbits/s speed=3.01x    frame= 5428 fps= 75 q=28.0 size=   17152kB time=00:03:37.19 bitrate= 646.9kbits/s speed=   3x    frame= 5456 fps= 75 q=28.0 size=   17408kB time=00:03:38.33 bitrate= 653.1kbits/s speed=   3x    frame= 5485 fps= 75 q=28.0 size=   17408kB time=00:03:39.49 bitrate= 649.7kbits/s speed=2.99x    frame= 5509 fps= 75 q=28.0 size=   17664kB time=00:03:40.49 bitrate= 656.3kbits/s speed=2.99x    frame= 5537 fps= 74 q=28.0 size=   17920kB time=00:03:41.58 bitrate= 662.5kbits/s speed=2.98x    frame= 5565 fps= 74 q=28.0 size=   18176kB time=00:03:42.70 bitrate= 668.6kbits/s speed=2.97x    frame= 5594 fps= 74 q=28.0 size=   18432kB time=00:03:43.86 bitrate= 674.5kbits/s speed=2.97x    frame= 5620 fps= 74 q=28.0 size=   18688kB time=00:03:44.90 bitrate= 680.7kbits/s speed=2.96x    frame= 5643 fps= 74 q=28.0 size=   18944kB time=00:03:45.83 bitrate= 687.2kbits/s speed=2.95x    frame= 5669 fps= 74 q=28.0 size=   19200kB time=00:03:46.85 bitrate= 693.3kbits/s speed=2.94x    frame= 5695 fps= 73 q=28.0 size=   19456kB time=00:03:47.90 bitrate= 699.3kbits/s speed=2.94x    frame= 5719 fps= 73 q=28.0 size=   19712kB time=00:03:48.87 bitrate= 705.5kbits/s speed=2.93x    frame= 5745 fps= 73 q=28.0 size=   19712kB time=00:03:49.90 bitrate= 702.4kbits/s speed=2.93x    frame= 5771 fps= 73 q=28.0 size=   19968kB time=00:03:50.94 bitrate= 708.3kbits/s speed=2.92x    frame= 5796 fps= 73 q=28.0 size=   20224kB time=00:03:51.94 bitrate= 714.3kbits/s speed=2.91x    frame= 5823 fps= 73 q=28.0 size=   20480kB time=00:03:53.03 bitrate= 719.9kbits/s speed=2.91x    frame= 5850 fps= 73 q=28.0 size=   20736kB time=00:03:54.10 bitrate= 725.6kbits/s speed= 2.9x    frame= 5879 fps= 72 q=28.0 size=   20992kB time=00:03:55.26 bitrate= 731.0kbits/s speed= 2.9x    frame= 5909 fps= 72 q=28.0 size=   21248kB time=00:03:56.47 bitrate= 736.1kbits/s speed= 2.9x    frame= 5940 fps= 72 q=28.0 size=   21248kB time=00:03:57.70 bitrate= 732.3kbits/s speed=2.89x    frame= 5973 fps= 72 q=28.0 size=   21504kB time=00:03:59.02 bitrate= 737.0kbits/s speed=2.89x    frame= 6009 fps= 72 q=28.0 size=   21504kB time=00:04:00.44 bitrate= 732.7kbits/s speed=2.89x    frame= 6012 fps= 72 q=-1.0 Lsize=   22106kB time=00:04:00.48 bitrate= 753.0kbits/s speed=2.87x    
video:18136kB audio:3772kB subtitle:0kB other streams:0kB global headers:0kB muxing overhead: 0.903871%
[libx264 @ 000000000062f240] frame I:25    Avg QP:15.84  size: 37232
[libx264 @ 000000000062f240] frame P:1589  Avg QP:18.54  size:  7295
[libx264 @ 000000000062f240] frame B:4398  Avg QP:20.64  size:  1375
[libx264 @ 000000000062f240] consecutive B-frames:  0.8%  4.5%  1.9% 92.9%
[libx264 @ 000000000062f240] mb I  I16..4: 35.5% 52.2% 12.3%
[libx264 @ 000000000062f240] mb P  I16..4:  2.1%  6.0%  0.4%  P16..4: 19.8%  5.3%  2.3%  0.0%  0.0%    skip:64.1%
[libx264 @ 000000000062f240] mb B  I16..4:  0.1%  0.2%  0.0%  B16..8: 15.0%  0.8%  0.1%  direct: 0.3%  skip:83.4%  L0:48.6% L1:49.6% BI: 1.8%
[libx264 @ 000000000062f240] 8x8 transform intra:66.9% inter:87.3%
[libx264 @ 000000000062f240] coded y,uvDC,uvAC intra: 31.2% 37.3% 9.6% inter: 2.6% 3.8% 0.0%
[libx264 @ 000000000062f240] i16 v,h,dc,p: 39% 37%  6% 18%
[libx264 @ 000000000062f240] i8 v,h,dc,ddl,ddr,vr,hd,vl,hu: 34% 18% 25%  3%  4%  5%  3%  4%  3%
[libx264 @ 000000000062f240] i4 v,h,dc,ddl,ddr,vr,hd,vl,hu: 34% 23% 12%  4%  6%  8%  5%  4%  3%
[libx264 @ 000000000062f240] i8c dc,h,v,p: 60% 19% 17%  4%
[libx264 @ 000000000062f240] Weighted P-Frames: Y:0.2% UV:0.1%
[libx264 @ 000000000062f240] ref P L0: 69.2%  8.8% 17.1%  4.9%  0.0%
[libx264 @ 000000000062f240] ref B L0: 90.4%  8.2%  1.4%
[libx264 @ 000000000062f240] ref B L1: 97.5%  2.5%
[libx264 @ 000000000062f240] kb/s:617.79
[aac @ 0000000002414d00] Qavg: 259.274
